# xmcd
#
# Track frame offsets: 
#        150
#        22803
#        49255
#        66068
#        92628
#        114985
#        138788
#        155593
#        176430
#        210845
#
# Disc length: 3095 seconds
#
# Revision: 1
# Processed by: cddbd v1.5.2PL0 Copyright (c) Steve Scherf et al.
# Submitted via: ExactAudioCopy v0.99pb4
#
DISCID=740c150a
DTITLE=Detroit Blues Band - Can't Get You Off My Mind
DYEAR=1995
DGENRE=Blues
TTITLE0=Sister's Got A Lover
TTITLE1=Tell Me
TTITLE2=Every Day I Have The Blues
TTITLE3=Wont You Consider
TTITLE4=Missing You
TTITLE5=She Winked Her Eye
TTITLE6=Too Close For Comfort
TTITLE7=East Side Gal
TTITLE8=Tears From My Eyes
TTITLE9=Can't Get You Off My Mind
EXTD=
EXTT0=
EXTT1=
EXTT2=
EXTT3=
EXTT4=
EXTT5=
EXTT6=
EXTT7=
EXTT8=
EXTT9=
PLAYORDER=
